<?xml version="1.0" encoding="utf-8"?>
<!-- Generator: Adobe Illustrator 26.0.0, SVG Export Plug-In . SVG Version: 6.00 Build 0)  -->
<svg version="1.1" id="Layer_1" xmlns="http://www.w3.org/2000/svg" xmlns:xlink="http://www.w3.org/1999/xlink" x="0px" y="0px"
	 viewBox="0 0 1024 1024" style="enable-background:new 0 0 1024 1024;" xml:space="preserve">
<style type="text/css">
	.st0{fill:#012338;}
	.st1{fill:#F9D7F1;}
	.st2{fill:#010609;}
	.st3{fill:#FEFEFF;}
	.st4{fill:#01253A;}
	.st5{fill:#EFEEF7;}
	.st6{fill:#C4CEDA;}
	.st7{fill:#321C45;}
	.st8{fill:#49265D;}
	.st9{fill:#FF83B3;}
	.st10{fill:#FF829E;}
	.st11{fill:#E782A4;}
	.st12{fill:#F199B1;}
	.st13{fill:#D399CF;}
	.st14{fill:#E8C4E9;}
</style>
<path class="st0" d="M897,666c-0.9-0.2-1.5,0.2-2.1,1.2c-1.7,3.1-4.2,6.6-7.4,10.5c-1.6,2-3.2,3.4-4.8,4.2c-1.8,1-3.8,1.7-6.1,2.3
	c-0.9,0.2-1.7,0.9-2.2,1.7c-4.5,8.2-8.9,16.5-13.3,24.7c-1.8,3.3-4.2,8-7.1,14c-2.3,4.7-4.7,9.4-7.2,14c-0.4,0.8-0.4,1.7,0.1,2.8
	c-11,21.9-19.5,38.3-25.6,49.4c-2.1,3.9-5,7.3-8.7,10.3c-3.1,2.6-7,4.8-11.5,6.6c-12,4.7-24,5.3-36.2,1.7c-3.1-0.9-9.2-3.4-18.5-7.5
	c-11.4-5.1-22.8-10.6-34.1-16.6c-0.3-0.2-0.6-0.1-0.8,0.2c-9.7,15-20.8,28.6-33.5,40.9c-0.2,0.2-0.2,0.4,0.1,0.4
	c15.2,1,30.5,1.9,45.7,2.7c22.9,1.2,45.5,4.7,67.7,10.3c2,0.5,3.9,1.1,5.7,2c2.2,1,3.8,2.5,4.7,4.5c0.6,1.4,0.5,2.8-0.2,4.3
	c-1.4,2.9-3.6,5-6.5,6.1c-0.9,0.4-3.7,1-8.3,1.9c-4,0.8-8.3,1.4-12.8,1.9c-23.9,2.5-47.2,4.2-69.8,5c-33.5,1.2-67,2-100.5,2.5
	c0-0.3,0-0.6-0.2-0.8c-0.1-0.2-0.5-0.3-0.9-0.3c-9.2,0.2-19.7,0.3-31.5,0.2c-5.7,0-18.9,0-39.7,0c-18.7,0.1-37.3,0-56-0.1
	c-1.1,0-1.9,0.3-2.2,1c-42.8-0.3-81.9-1.2-117.2-2.7c-16-0.7-33.1-2-51.4-4c-6.2-0.7-12.1-1-17.7-1.1c-71.1-0.4-120.9-0.4-149.4-0.2
	c-7.4,0.1-12.2-2.5-14.3-7.8c-1.5-3.6-1.5-8.3-0.1-14c1.5-6.1,4.3-11.9,8.3-17.3c6.9-9.2,15.3-15.9,25.2-20.1
	c5-2.1,10.5-3.5,16.7-4.3c6.2-0.8,12-0.8,17.4,0c5,0.7,10.2,1.6,15.5,2.5c0.3,0.1,0.6-0.1,0.6-0.4c1.4-4.9,2.8-9.7,4.4-14.3
	c6.3-18.5,17-34,31.9-46.6c17.6-14.8,37.6-19,60-12.5c0.5,0.1,0.6,0,0.4-0.4c-1.8-3.5-3.4-7.1-4.8-10.8
	c-4.5-11.7-8.7-23.7-12.6-36.1c-0.1-0.2-0.2-0.3-0.4-0.2c0,0-0.1,0-0.1,0.1c-9.1,8.4-17.4,17.1-25,26.2c-3.5,4.2-6.1,6.8-7.8,7.8
	c-3.3,1.9-7.1,2.7-11.4,2.1c-10.4-1.3-17.8-6.5-22.1-15.8c-1.1-2.3-1.9-4.9-2.5-7.8c-0.5-2.6-0.8-5.3-0.8-8.1
	c0.1-12.3,4-22.8,11.8-31.5c11.1-12.4,25.4-19.2,42.8-20.5c0.3,0,0.4-0.2,0.4-0.5c0,0,0,0,0-0.1c-2.7-13.5-4.6-26.9-5.7-40.1
	c0-0.2-0.2-0.3-0.3-0.3c0,0-0.1,0-0.1,0c-9.6,5.9-18.1,13-25.6,21.4c-3.1,3.5-6.5,6.1-10.3,7.7c-3.7,1.6-7.7,1.8-12,0.7
	c-4.8-1.3-8.7-3.7-11.7-7.2c-2.5-2.9-4.6-6.7-6.4-11.5c-1.7-4.6-2.4-9.3-2.1-14.1c0.7-11,4.5-20.2,11.6-27.8
	c4.2-4.6,9.6-8.4,16.2-11.4c10.9-5,22.6-7,35.1-5.9c0.2,0,0.4-0.2,0.5-0.4c0,0,0,0,0-0.1c-1.2-14.6-1.6-29.6-1.1-44.9
	c0-1-0.4-1.3-1.3-0.8c-8.2,4.9-15.8,10.4-22.7,16.5c-2.2,1.9-5,4-8.6,6.1c-3.9,2.4-8,3.5-12.2,3.3c-3.7-0.2-7.5-1.5-11.4-3.9
	c-8.2-5.2-12.8-13-13.7-23.3c-0.5-5.9,0.4-12.1,2.8-18.6c4.4-11.8,12-19.8,22.9-23.9c8.3-3.1,16.9-4.9,25.7-5.2
	c6.3-0.2,12.6-0.2,18.8,0.2c0.3,0,0.5-0.2,0.6-0.5c2.1-17.9,5.5-35.2,10.2-51.9c0.1-0.2-0.1-0.4-0.2-0.4c0,0-0.1,0-0.1,0
	c-10,1-18.2,2.5-24.7,4.5c-5.4,1.7-9.8,2.8-13.2,3.4c-7.7,1.2-13.5-1.4-17.2-8c-3.3-5.9-4.9-12-4.6-18.3c0.3-5.9,2-11.7,5.3-17.3
	c3.4-5.8,8-10.4,13.8-13.7c4.9-2.8,10.9-4.7,18-5.6c12-1.5,24-0.1,35.8,4.4c0.5,0.2,1,0,1.2-0.5c5.1-10.3,11.2-20,18.4-29.2
	c9.5-12.2,20.2-23.3,32.1-33.2c3.5-2.9,10.8-8.3,22-16.1c0.2-0.1,0.2-0.3,0.1-0.5c0,0,0-0.1-0.1-0.1c-1.8-1.4-3.7-2.7-5.6-3.9
	c0,0-0.6-0.4-1.6-1.1c-1.1-0.8-2.5-1.5-4.3-2.1c-8.3-2.8-12-8.8-11.2-18c0.8-8.7,3.7-16.7,8.7-24.2c4-5.9,9.3-10,15.8-12.4
	c9.9-3.5,19.4-3,28.5,1.5c3.3,1.6,5.9,4.2,8,7.7c3.6,6.2,8.7,12.6,15.3,19c3.6,3.5,5.9,5.7,6.9,6.7c0.2,0.2,0.5,0.3,0.8,0.2
	c3.4-0.6,8.6-1.8,15.7-3.6c11.1-2.8,21.6-4.5,31.5-5.2c8.7-0.7,19.1-1,31.2-1c0.2,0,0.4-0.2,0.4-0.4c0,0,0-0.1,0-0.1
	c-2.6-8.6-3.5-16.3-2.6-23c2-15,10.3-24.1,24.9-27.3c9.1-2,17.8-0.7,26.1,3.8c9.5,5.1,13.8,13.2,12.7,24.3
	c-0.8,8.8-1.1,19.2-0.8,31.3c0,0.3,0.2,0.6,0.5,0.7c28.3,10.1,54.6,24.8,78.7,44.1c0.3,0.2,0.7,0.2,1-0.1c0,0,0.1-0.1,0.1-0.1
	c2.8-5.9,5.9-11.6,9.2-16.9c4.1-6.5,7-10.7,8.9-12.7c2.5-2.6,5.3-4.8,8.6-6.4c3-1.5,6.4-2.5,10.1-3c10.8-1.3,20.4,1.7,29,9
	c6.9,5.9,10.8,13.2,11.8,21.9c0.8,6.9-1,13.3-5.3,19.2c-5.8,7.8-13.4,15.2-23,22c0,0-1,0.8-3,2.5c-1.1,0.9-2.3,1.6-3.6,2.2
	c-0.2,0.1-0.3,0.3-0.2,0.5c0,0,0,0,0,0.1c8.8,13.5,16.8,27.4,24,41.8c0.1,0.2,0.3,0.3,0.6,0.3c12.7-3.4,25.4-4.1,38-2
	c6.3,1,12.2,3.2,17.7,6.5c7.2,4.4,11.7,10.8,13.4,19.1c1.6,7.7,1.1,14.9-1.4,21.3c-2,5.2-5,9.1-9,11.5c-3.1,1.9-6.6,2.9-10.4,2.9
	c-1.3,0-4.8-0.4-10.4-1.1c-6.5-0.9-12.9-2.1-19.2-3.5c-0.3-0.1-0.6,0.1-0.7,0.4c0,0.1,0,0.2,0,0.2l3.6,20.7c0,0.2,0.2,0.3,0.4,0.3
	c0,0,0.1,0,0.1,0c6.2-3.5,12.5-4.6,18.8-3.5c9.4,1.7,17,6.4,22.7,14c3.8,5,5.8,10.5,6,16.3c0.2,5.6-1.1,10.9-3.9,16.1
	c-3.2,5.9-7.9,10.2-14.2,12.9c-3.6,1.6-8,2.5-13.2,2.7c-4.5,0.2-9.1,0-13.6-0.6c-0.6-0.1-1.1,0.3-1.2,0.9c-0.1,0.6-0.4,1-0.8,1.3
	c-0.3,0.2-0.8,0.3-1.4,0.3c-6.5,0.1-13-0.1-19.4-0.7c-0.2,0-0.5,0.2-0.5,0.4c0,0,0,0,0,0.1c0.8,23.1,0.9,46.3,0.1,69.4
	c-0.1,2.2-0.4,4.4-1,6.7c-0.2,0.6,0,0.7,0.5,0.4c2.2-1.6,5-2.5,8.4-2.6c0.5,0,0.9-0.3,1.1-0.8c2.7-5.8,5.3-11.5,8-16.9
	c5.3-10.9,11.5-21.4,18.4-31.3c3.6-5.1,6.5-9.1,8.8-11.9c3.3-4,6.6-7.6,10.2-10.7c2.1-1.8,4.4-3.4,7.1-4.6c2.3-1.1,4.9-1.9,8-2.5
	c7.4-1.5,14.7-1.7,22.1-0.6c0.7,0.1,1.3-0.3,1.5-0.9c3.8-11.6,7.4-23.2,10.8-34.8c3.3-11.2,10.5-17.2,21.7-18.2
	c6.2-0.5,12.6-0.1,19.2,1.4c4.7,1,10.7,3.2,18,6.5c12.5,5.7,23.8,11.5,34,17.4c2.1,1.2,4.3,2.9,6.5,5c2.1,1.9,3.8,4,5.1,6.3
	c4.5,7.7,5.7,15.6,3.4,23.7c-1.2,4.4-4.5,10.1-9.8,17.3c-4.6,6.3-9.7,12.5-15.1,18.6c-0.4,0.5-0.4,1.1,0,1.6
	c8.2,9.5,13.4,20.1,15.5,31.7c3.6,19.5,4.2,38.8,1.9,58C908.8,639.5,904.3,653.1,897,666z M457,270c-0.2-0.6-0.7-0.9-1.5-0.8
	c-19.7,2.7-38.1,8.2-55.2,16.5c-2.2,1.1-3.6,2.1-4.2,3.3c-21.6,10.8-39.5,25.3-53.7,43.3c-8.9,11.2-16.6,24.3-23.3,39.2
	c-1.1,0.1-1.8,0.7-2.2,1.8c-1.2,3.2-2.4,6.3-3.6,9.5c-1.3,3.2-2.3,6.4-3.2,9.6c-1.3,4.6-2.6,9.2-4,13.8c-1.1,3.7-2.1,8.2-3,13.3
	c-0.5,3-1.2,7.5-2,13.5c-0.8,6.1-1.8,14.3-3,24.5c-0.6,5.6-1,10.3-1,14.1c-0.1,3.3-0.1,5.6-0.2,6.7c-0.1,2.2-0.2,4.4-0.3,6.7
	c-0.1,1.4-0.7,3.2-2,5.3c-0.2,0.3-0.3,0.6-0.3,0.9c0,1.9,0.1,3.8,0.4,5.7c0,0.2,0.4,1.5,1.2,3.9c0.4,1.3,0.6,2.7,0.5,4.3
	c-0.3,9.6,0.3,20,1.8,31.3c0.2,1.3,0.7,1.9,1.5,1.8c1.1,19,2.3,32,3.6,38.9c2.1,11.7,4.3,23.4,6.4,35.1c1.7,9,4.6,20.9,8.8,35.5
	c3.3,11.9,7.2,23.6,11.7,35.1c0.5,1.4,1.4,3.9,2.7,7.5c0.9,2.5,1.9,5,3,7.5c8.3,18.6,18.2,36.3,29.5,53.1
	c4.8,7.2,8.6,12.6,11.5,16.4c13.2,17.3,29.5,31.3,48.9,41.9c16.1,8.5,33,14.4,50.8,17.8c6.2,1.2,12.8,2.2,19.8,3
	c8,1,16.1,1.5,24.2,1.5c25.1,0.2,49.9-2.6,74.2-8.5c9.1-2.2,19.5-6,31-11.4c2.7-1.3,5.1-2.8,7.2-4.7c4.8-4.3,9.3-8.9,13.5-13.8
	c7-7.6,13-15.9,18.1-25c0.4-0.8,1.3-1.9,2.6-3.4c0.2-0.2,0.1-0.5,0-0.7l-5.9-6c-8.1-10.3-11.4-21.8-9.9-34.6
	c0.3-2.6,0.9-5.3,1.9-8.1c0.9-2.6,1.9-5.2,3-7.8c4-9.2,8.1-18.3,12.4-27.4c0.4-0.8,0.2-1-0.6-0.4l-3.6,2.6c-0.1,0.1-0.5,0.1-0.9,0.2
	c-0.4,0-0.8,0.3-1,0.8c-1.4,2.9-3.6,6-6.5,9.5c-0.8-0.2-1.4-0.1-1.7,0.3c-6.2,6.7-11.7,12.5-16.8,17.2c-5.9,5.6-12.6,10.8-20.1,15.6
	c-8.1,5.1-16.6,8.9-25.8,11.4c-3.2,0.9-7.3,1.9-12.2,2.9c-4.5,1-8.6,1.6-12.4,2c-1.1,0.1-1.7,0.6-2,1.5c-10.6,0.7-21.1,0.2-31.5-1.7
	c-20.7-3.6-40.2-10.4-58.5-20.4c-6.2-3.4-11.9-6.8-17.1-10.3c-9.6-6.5-18.7-14-27.3-22.7c-16.5-16.8-29.8-35.4-39.8-56
	c-9.2-19-16.4-38.7-21.3-59.2c-1.5-6.1-2.7-12.6-3.7-19.7c-2.2-15.4-3.3-29.4-3.5-42.1c-0.3-21.7,3.2-43.7,10.6-66
	c2.9-8.7,8.9-14.9,18.1-18.6c13.1-5.2,26-6.2,38.7-3c12.4,3.2,25,5.8,37.6,8c22.9,4,46,5.7,69.2,5.2c24.1-0.5,48.1-2.5,71.9-5.8
	c12.8-1.8,25.5-3.6,38.3-5.4c5.3-0.7,10.1-1.1,14.2-1.1c3.7,0,7.7,0.7,11.9,2.1c3.7,1.3,7.5,2.8,11.3,4.5c0.3,0.1,0.4,0,0.4-0.3
	c-5-26.4-14.8-50.5-29.3-72.2c-8.4-12.6-18-24.3-28.6-35.1c-4-4.1-9.7-8.9-17-14.5c-18.6-14.3-38.3-25.1-59.3-32.4
	c-6.2-2.2-12.6-3.9-19.3-5.2c-15.8-3.2-31.7-4.5-47.5-4.1C475.6,268.2,466.8,268.9,457,270z M481.8,486c4,15.9,13.1,26.5,27.1,31.8
	c6.1,2.3,12.7,3.4,19.6,3.1c8.8-0.4,17.1-2.6,24.8-6.9c5.5-3,10-6.8,13.6-11.3c3.7-4.6,6.5-9.8,8.7-15.8c0.1-0.3,0.4-0.4,0.6-0.3
	c0.1,0,0.1,0,0.1,0.1c3.4,2.6,6.7,4.9,9.8,6.8c13.8,8.2,28,10,42.5,5.2c5.3-1.7,9.6-4.2,12.8-7.5c5.4-5.5,8.3-12.5,8.7-21
	c0.1-1.4,0-4,0-7.9c0-0.2-0.2-0.4-0.4-0.4c0,0-0.1,0-0.1,0c-10.5,2.7-22,4.9-34.5,6.6c-40.6,5.5-81,6.8-121,3.8
	c-6-0.4-12.7-1.2-19.9-2.3c-18-2.7-29.9-4.8-35.8-6.1c-7.3-1.6-14.5-3.8-21.7-6.6c-0.3-0.1-0.6,0-0.8,0.2
	c-6.5,6.7-10.1,14.6-10.6,23.7c-0.3,5.3,0.8,10.2,3.2,14.7c2.2,4.1,5.2,7.1,8.9,9.2c3.9,2.2,8.3,3.1,13.1,2.8
	c12-0.8,23.1-4.5,33.4-11c4.8-3,7.3-4.6,7.4-4.7c3.3-2,6.5-4.2,9.7-6.5c0.2-0.1,0.4-0.1,0.5,0.1C481.8,486,481.8,486,481.8,486z
	 M808.2,655.5c-2.1-8-0.8-15.3,3.9-22c2.3-3.3,5.5-5.2,9.4-5.5c3.7-0.4,7.5-0.1,11.5,1c5.9,4.3,10.2,9.7,12.8,16.1
	c0.3,0.7,1.1,1.1,1.9,0.8c6-2.4,11.2-5.8,15.5-10.2c2.4-2.5,4.1-5.3,5.2-8.6c6-17.8,9-36,8.9-54.8c0-3-1.2-5.6-3.7-7.6
	c-5.4-4.5-9.6-10.2-12.5-17c-1.2-2.8-2.7-5.1-4.5-7c-0.2-0.2-0.5-0.4-0.8-0.4c-0.8-0.2-1.1-0.7-0.8-1.4c0.3-0.7,0.5-1.1,0.5-1.2
	c0.5-1.7,1.3-3.3,2.2-4.8c7.9-13.3,17-25.7,27.1-37.4c1.4-1.6,2.7-2.8,3.9-3.7c0.1-0.1,0.2-0.3,0.1-0.5c0,0-0.1-0.1-0.1-0.1
	c-14.8-9.3-30.1-17.5-46.1-24.7c-0.2-0.1-0.5,0-0.6,0.2c0,0,0,0,0,0c-2.6,6.4-5.2,12.7-7.9,19c-2.5,6.1-4.5,12.3-5.9,18.7
	c-0.4,2-1.2,3.8-2.4,5.3c-7.7,9.9-18,14.3-30.8,13c-2.7-0.3-5.2,0.2-7.3,1.3c-3.1,1.7-6,4.1-8.5,7.2c-7.9,9.7-15.1,20.4-21.5,31.9
	c-0.2,0.4-0.2,1,0.2,1.3c3.5,3.4,6.5,7.2,9,11.2c3.2,5.2,5,10.7,5.3,16.5c0.3,6.1-0.9,11.1-3.6,15.2c-3.2,4.8-8.3,7.5-15.1,8.1
	c-3.8,0.3-7.8-0.2-12-1.6c-0.3-0.1-0.6,0-0.8,0.3l-7.6,14c-0.1,0.3-0.1,0.6,0.2,0.8c6.4,4.4,10.7,10.1,12.7,17.2
	c1.3,4.6,1.6,8.9,0.8,12.8c-0.9,4.7-3.3,8.5-7.2,11.5c-4.8,3.6-10.1,5.2-15.9,4.8c-2.8-0.2-6.1-0.7-9.8-1.5
	c-0.3-0.1-0.6,0.1-0.7,0.3c-7.2,12.9-14.1,26-20.6,39.3c-1.8,3.7-3.4,7.4-4.8,11.3c-0.9,2.4-1.1,4.6-0.8,6.5c1.1,6,4.4,10.6,10,14
	c1.3,0.8,5,2.6,11.2,5.4c9.3,4.2,26.4,12.4,51.4,24.5c0.1,0,1.4,0.7,4.1,2.1c5.4,2.8,10.4,4.4,15,4.9c5.4,0.6,9.3-1.5,11.5-6.2
	c14.9-31.6,29.8-63.2,44.5-94.9c0.1-0.2,0-0.4-0.2-0.5c0,0,0,0-0.1,0C821,677.1,812.3,668.8,808.2,655.5z M674,607.5
	c1.1-3.7,3.3-6.7,6.5-8.9c3.8-2.7,7.8-5.6,11.9-8.8c0.7-0.5,0.9-1.5,0.4-2.2c-3-5.1-7.3-5.8-12.7-2.1c-3.1,1.8-5.8,4.1-8.2,6.8
	c-0.4,0.4-0.8,0.8-1.1,1c-1.3,0.8-1.8,0.3-1.3-1.5c0.7-2.8,1.1-5.5,1.3-8.1c0-0.6-0.4-1.2-1.1-1.2c-0.1,0-0.2,0-0.3,0
	c-0.9,0.1-1.6,0.2-2.3,0.4c-0.7,0.2-1.3,0.6-1.9,1.1c-2.8,2.9-4.5,6.4-5,10.6c-0.2,1.9-1,2.1-2.2,0.7c-1.5-1.7-3.5-2.4-6-2.3
	c-0.3,0-0.5,0.2-0.6,0.5c-0.4,2.9,0,5.7,1.3,8.3c0.7,1.5,0.4,2.7-0.9,3.7c-1.2,0.9-2.4,1.6-3.8,2.3c-0.9,0.4-1.4,0.9-1.7,1.3
	c-0.4,0.7-0.5,1.4-0.4,2.3c0.1,0.3,0.3,0.5,0.6,0.5l6,0.1c1.5,0,2,0.7,1.5,2c-0.7,1.8-1.3,3.7-1.8,5.7c-0.3,1.1-0.3,1.9,0,2.5
	c0.4,1.1,1.4,1.5,2.7,1.2c0.3-0.1,0.6-0.2,0.8-0.5l3.3-4.5c0.2-0.3,0.4-0.3,0.5,0.1c0.3,1.1,0.9,3.3,1.7,6.5
	c0.3,1.4,0.8,1.7,1.5,0.8c0.1-0.2,0.3-0.5,0.6-1.1c1.4-3.3,3.9-4,7.3-2.1c2.8,1.6,5,2.4,6.4,2.4c6-0.1,11.6-1.5,16.7-4.2
	c2.3-1.2,3.8-2.5,4.7-4c1.2-2,1.5-4.1,1.1-6.5c-0.7-3.8-2.8-6-6.2-6.5c-4-0.6-8.3,0.3-12.8,2.8c-1.6,0.9-3.4,1.5-5.2,1.8
	C674.5,608.5,674.1,608.2,674,607.5z M571.8,583.8c-5,0.1-9.6,1.5-13.8,4c-0.2,0.1-0.2,0.3-0.1,0.5c0,0,0,0.1,0.1,0.1
	c11,10.2,17.9,23.1,20.6,38.7c1.1,6.4,1.9,12,2.2,16.7c0.3,4.4,0.5,7.6,0.3,9.7c-0.2,3.3-0.8,6.5-2,9.6c-0.8,2.2-2.3,3.6-4.5,4.1
	c-2.5,0.6-4.9,0.6-7.3-0.1c-3.1-1.8-4.9-4.1-5.5-6.8c-0.9-4.2-1.4-6.9-1.5-8c-0.7-12.7-2.1-22.7-4-30c-2.1-7.9-6-14.8-11.7-20.5
	c-6-6.1-13.2-9.5-21.8-10.2c-9.5-0.8-17.5,2.1-23.8,8.8c-0.2,0.2-0.2,0.5,0,0.7c0.1,0.1,0.1,0.1,0.2,0.1
	c11.3,4.3,18.6,11.7,22.1,22.2c1.4,4.1,2.2,8.8,2.7,14.1c0.3,4.4,0.3,9.2-0.2,14.4c-0.6,6.4-3.4,11.6-8.6,15.7
	c-0.5,0.4-0.7,0.9-0.7,1.5c0.3,8.3,2.4,15.4,6.4,21.5c3.3,5.1,8.2,9.4,14.7,13c6.2,3.4,12.6,5.4,19.2,6.1
	c17.7,1.8,32.8-3.9,45.4-17.1c8.9-9.4,14.6-20.3,17-32.7c2.1-11,2.1-22.1,0-33.2c-1.2-6.4-2.7-11.6-4.5-15.8c-2.1-5-5.1-9.7-8.9-14
	C595.3,587,584.6,582.7,571.8,583.8z M260.1,792.6c19.8,7,32.7,20.2,38.8,39.8c0.1,0.3,0.4,0.4,0.6,0.4c14.9-2.4,30.8-3.7,47.7-4.1
	c8.5-0.2,19.2-0.8,32.2-1.8c0.3,0,0.4-0.1,0.1-0.4c-8.3-7.3-13.8-12.2-16.5-14.9c-10.3-10.4-19.3-22.1-26.9-35.1
	c-0.1-0.2-0.3-0.2-0.4-0.1c0,0-0.1,0.1-0.1,0.1c-2.2,3.3-4.7,6.3-7.5,8.8c-3.1,2.8-6.2,5-9.3,6.6c-5.1,2.7-10.7,3.7-16.8,3.1
	c-5.3-0.6-9.8-1.6-13.5-3.3c-6.3-2.8-12.5-5.9-18.5-9.3c-0.3-0.2-0.7-0.1-0.9,0.1l-9.1,9.3c-0.2,0.2-0.2,0.4,0,0.6
	C260,792.6,260.1,792.6,260.1,792.6z"/>
<path class="st1" d="M565,743.7c10.9-1,20.8-2.9,29.8-5.7c15.4-4.8,29.3-13,41.7-24.6c6.9-6.5,13.5-13.4,19.6-20.6
	c2.9-3.5,5.1-6.7,6.5-9.5c0.2-0.5,0.6-0.8,1-0.8c0.5,0,0.9-0.1,0.9-0.2l3.6-2.6c0.8-0.6,1-0.4,0.6,0.4c-4.3,9.1-8.4,18.2-12.4,27.4
	c-1.1,2.6-2.1,5.2-3,7.8c-0.9,2.9-1.6,5.6-1.9,8.1c-1.5,12.8,1.8,24.3,9.9,34.6c-1.5-0.1-2.8,0.6-3.8,2c-2.6,3.5-5.5,6.8-8.9,9.8
	c-2.2,2-5.6,4.8-10.2,8.3c-14.4,11-30,19-46.8,24c-16.2,4.8-33.1,7.4-50.8,8c-23.1,0.8-45.5-1.8-67.2-7.7
	c-5.7-1.5-13.2-4.4-22.6-8.5c-25.7-11.4-47.6-26.9-65.5-46.5c-12.2-13.3-23.5-28-33.9-44.1c-11-16.9-20.2-34.5-27.5-52.6
	c-2.9-7.1-4.5-11.1-4.9-12.1c-1.5-4.1-2.8-8.2-3.7-12.5c-0.8-3.6-1.8-7.3-2.8-10.8c-0.2-0.8-0.4-1.1-0.7-0.9
	c-0.2,0.1-0.2,0.5-0.1,0.9c0.6,2,1.2,4.8,1.8,8.5c0.8,5,2.8,11.6,5.8,19.7c0.6,1.6,0.5,3-0.2,4.2c-0.1,0.1-0.3,0.2-0.5,0.1l-0.4,0
	c-4.2-14.7-7.1-26.5-8.8-35.5c-2.1-11.7-4.3-23.4-6.4-35.1c-1.3-6.9-2.5-19.9-3.6-38.9c-1.8-22.3-2.2-44.6-1.2-67
	c0.9-18.5,2.8-35.6,5.7-51.2c3-15.9,7.9-32,14.8-48.5c6.7-14.9,14.5-28,23.3-39.2c14.2-18,32.1-32.4,53.7-43.3
	c19.3-9.6,39.7-15.9,61-19c9.7-1.1,18.6-1.8,26.5-2c15.8-0.5,31.7,0.9,47.5,4.1c6.6,1.3,13.1,3.1,19.3,5.2
	c21,7.3,40.7,18.1,59.3,32.4c7.3,5.6,12.9,10.4,17,14.5c10.7,10.8,20.2,22.5,28.6,35.1c14.5,21.7,24.3,45.8,29.3,72.2
	c0.1,0.3-0.1,0.4-0.4,0.3c-3.8-1.7-7.6-3.2-11.3-4.5c-4.2-1.4-8.1-2.1-11.9-2.1c-4.1,0-8.9,0.4-14.2,1.1
	c-12.8,1.8-25.5,3.6-38.3,5.4c-23.9,3.4-47.8,5.3-71.9,5.8c-23.3,0.5-46.3-1.2-69.2-5.2c-12.6-2.2-25.2-4.9-37.6-8
	c-12.7-3.2-25.6-2.2-38.7,3c-9.2,3.6-15.2,9.8-18.1,18.6c-7.4,22.3-10.9,44.3-10.6,66c0.2,12.7,1.3,26.7,3.5,42.1
	c1,7,2.2,13.6,3.7,19.7c5,20.5,12.1,40.2,21.3,59.2c10,20.6,23.3,39.2,39.8,56c8.5,8.7,17.6,16.2,27.3,22.7
	c5.2,3.5,11,6.9,17.1,10.3c18.3,9.9,37.8,16.7,58.5,20.4C543.9,743.9,554.4,744.4,565,743.7z M544.2,348.8c-0.3,2.3-0.2,4.5,0.2,6.8
	c-1.5,0.9-1.9,2.9-1.3,6c0.1,0.3,0.1,0.7,0.1,1.2l-0.2,11.8c0,0.9,0.4,1.8,1.1,2.6c8.1,8.6,18.1,13.5,30.1,14.7
	c5.8,0.4,11.5-0.3,16.9-1.9c5.4-1.6,10.2-4.3,14.6-8.1c8.6-7.4,13.5-17.1,14.8-28.9c0.2-2.2,0.3-4.8,0.1-7.7
	c-0.2-3.5-0.5-6.1-0.9-7.7c-3-11.9-10-19.8-21.2-23.6c-13.8-4.7-27.2-3.2-40,4.6c-5.2,3.2-8.6,7.9-10.1,14.3
	c-0.1,0.3-0.2,0.6-0.5,0.9c-1.3,1.5-2.4,3.5-3.2,6.1c-1,3.2-1.7,5.8-1.9,7.8c0,0.4,0,0.7,0.2,0.9C543.4,349,543.8,349.1,544.2,348.8
	z M382.2,358.3c-4.9,10.1-4.1,19.6,2.3,28.7c0.4,2,1.3,4.2,2.6,6.8c3.7,7.2,9.4,11.8,17,13.7c-0.4,0.9,0,1.5,1,1.8
	c4.3,1.1,8.3,1.6,12.2,1.7c3.9,0,7.8-0.7,12-2c7.5-2.5,13.8-6.6,19.1-12.2c4.2-4.5,7-9.7,8.6-15.8c1.1-4.1,1.7-8.4,1.9-12.9
	c0.2-4.5-0.3-8.8-1.5-13c-4.1-15-14-23.6-29.5-25.8c-3.3-0.5-6.5-0.4-9.7,0.3c-3.1,0.7-6,1.8-9,3.3c-5.7,2.9-10.7,7.8-14.9,14.7
	c-0.2,0.4-0.6,0.6-1,0.7c-4.7,1.1-8.4,3.5-11.1,7.1c0,0-0.2,0.3-0.6,0.7C380.9,357,381.1,357.7,382.2,358.3z M496.8,395.5
	c-3.1,1.8-4.4,4.2-3.8,7.1c0.4,1.9,1.7,3.9,3.8,5.8c6.4,5.9,14.3,7.8,23.6,5.7c5.4-1.2,9-4.7,10.8-10.3c0-0.1,0.1-0.2,0.3-0.1
	c0,0,0,0,0,0c3.3,1.8,6.8,2.7,10.5,2.6c2.2,0,3.8-0.2,4.9-0.5c2.1-0.6,3.2-2.1,3.2-4.4c0-1.2-0.4-2.4-1.3-3.6c-0.7-1-1.6-2-2.5-3
	c-0.5-0.6-1.4-0.6-2-0.1c-3.7,3.4-7.5,3.8-11.5,1.1c-0.7-0.5-2-1.7-3.8-3.5l-1.6-2.3c-0.2-0.3-0.4-0.3-0.5,0.1
	c-1.6,3.7-3.2,7.4-4.6,11.2c-1.3,3.3-3.5,5.3-6.6,6.1c-2.7,0.7-5.4,0.2-7.9-1.4c-2.8-1.8-4.7-4.5-5.6-7.9
	C501.4,395.2,499.6,394.3,496.8,395.5z"/>
<path class="st2" d="M457,270c-21.4,3.1-41.7,9.5-61,19c0.7-1.1,2.1-2.2,4.2-3.3c17.1-8.3,35.5-13.8,55.2-16.5
	C456.4,269.1,456.9,269.4,457,270z"/>
<path class="st3" d="M574.2,391.7c0.8-1.8,1.2-3.7,1.2-5.7c0.1-4,0.3-8,0.5-12c0.1-1,0-1.8-0.3-2.2c5.8-4.3,9.2-9.8,10.3-16.4
	c0.9-5.3,0.2-10.1-1.9-14.5c-2.3-4.7-6.1-8.3-11.5-10.6c-3.6-1.6-7.5-2.1-11.7-1.6c-6.7,0.8-11.4,4.1-14.2,10.1
	c-1.3,2.8-2.2,6.1-2.6,9.9c-0.4,0.3-0.9,0.2-1.2-0.3c-0.2-0.2-0.2-0.6-0.2-0.9c0.3-1.9,0.9-4.5,1.9-7.8c0.8-2.5,1.9-4.6,3.2-6.1
	c0.2-0.3,0.4-0.5,0.5-0.9c1.5-6.3,4.9-11.1,10.1-14.3c12.8-7.8,26.2-9.3,40-4.6c11.1,3.8,18.2,11.6,21.2,23.6
	c0.4,1.6,0.7,4.2,0.9,7.7c0.1,2.9,0.1,5.4-0.1,7.7c-1.3,11.8-6.2,21.5-14.8,28.9c-4.3,3.8-9.2,6.4-14.6,8.1
	C585.7,391.5,580.1,392.1,574.2,391.7z"/>
<path class="st4" d="M575.7,371.8c-3.5,2-7,2.8-10.5,2.5c-11.6-0.9-18.5-7.2-20.8-18.8c-0.5-2.2-0.6-4.5-0.2-6.8
	c0.4-3.8,1.3-7.2,2.6-9.9c2.7-5.9,7.5-9.3,14.2-10.1c4.2-0.5,8.1,0,11.7,1.6c5.4,2.3,9.2,5.8,11.5,10.6c2.1,4.4,2.7,9.2,1.9,14.5
	C585,362,581.5,367.4,575.7,371.8z"/>
<path class="st3" d="M404.2,407.5c5.7-4.9,9.2-11,10.2-18.5c2.9-3.4,4.8-6.7,5.8-9.8c2.4-7.5,1.2-14.5-3.7-21.1
	c-4.6-6.2-11-9.1-19.1-8.6c-6.8,0.4-11.9,3.3-15.2,8.8c-1.2-0.5-1.3-1.3-0.6-2.2c0.4-0.4,0.6-0.7,0.6-0.7c2.8-3.7,6.5-6.1,11.1-7.1
	c0.4-0.1,0.8-0.4,1-0.7c4.2-6.8,9.2-11.7,14.9-14.7c2.9-1.5,5.9-2.6,9-3.3c3.2-0.7,6.4-0.8,9.7-0.3c15.5,2.2,25.4,10.8,29.5,25.8
	c1.2,4.2,1.7,8.6,1.5,13c-0.2,4.4-0.8,8.7-1.9,12.9c-1.6,6.1-4.5,11.3-8.6,15.8c-5.2,5.6-11.6,9.7-19.1,12.2c-4.1,1.4-8.1,2.1-12,2
	c-3.8,0-7.9-0.6-12.2-1.7C404.2,409,403.8,408.4,404.2,407.5z"/>
<path class="st4" d="M414.5,389c-5.5,3.9-11.7,5.1-18.7,3.5c-4.5-1-8.3-2.9-11.2-5.5c-6.4-9.1-7.2-18.6-2.3-28.7
	c3.4-5.5,8.5-8.4,15.2-8.8c8.1-0.5,14.5,2.4,19.1,8.6c4.9,6.6,6.1,13.6,3.7,21.1C419.3,382.3,417.3,385.6,414.5,389z"/>
<path class="st5" d="M544.5,355.5c2.3,11.6,9.2,17.8,20.8,18.8c3.5,0.3,7-0.5,10.5-2.5c0.2,0.5,0.3,1.2,0.3,2.2c-0.2,4-0.4,8-0.5,12
	c-0.1,2-0.5,3.9-1.2,5.7c-12-1.2-22-6.1-30.1-14.7c-0.7-0.7-1.1-1.7-1.1-2.6l0.2-11.8c0-0.5,0-0.9-0.1-1.2
	C542.5,358.4,543,356.4,544.5,355.5z"/>
<path class="st2" d="M319,371.5c-6.8,16.5-11.8,32.6-14.8,48.5c-3,15.7-4.9,32.8-5.7,51.2c-1,22.4-0.6,44.7,1.2,67
	c-0.8,0.1-1.3-0.5-1.5-1.8c-1.6-11.3-2.2-21.7-1.8-31.3c0.1-1.6-0.1-3.1-0.5-4.3c-0.8-2.4-1.2-3.7-1.2-3.9c-0.3-1.9-0.4-3.8-0.4-5.7
	c0-0.3,0.1-0.6,0.3-0.9c1.3-2.1,1.9-3.9,2-5.3c0.1-2.2,0.2-4.4,0.3-6.7c0.1-1.1,0.1-3.3,0.2-6.7c0.1-3.8,0.4-8.5,1-14.1
	c1.1-10.3,2.1-18.4,3-24.5c0.8-6,1.5-10.5,2-13.5c0.8-5.2,1.8-9.6,3-13.3c1.4-4.6,2.7-9.2,4-13.8c0.9-3.2,2-6.4,3.2-9.6
	c1.3-3.2,2.5-6.3,3.6-9.5C317.2,372.3,317.9,371.7,319,371.5z"/>
<path class="st6" d="M384.5,387c2.9,2.6,6.7,4.5,11.2,5.5c7,1.6,13.2,0.4,18.7-3.5c-1.1,7.5-4.5,13.6-10.2,18.5
	c-7.6-1.9-13.3-6.5-17-13.7C385.9,391.2,385,389,384.5,387z"/>
<path class="st7" d="M529,392.5c-1.2,0.7-2.1,1.6-2.6,2.9c-0.9,2.1-1.9,4.2-2.9,6.2c0,0.1-0.3,0.7-0.8,1.9c-0.6,1.5-1.7,2.7-3.1,3.6
	c-2.8,1.8-5.5,2.4-8.4,1.8c-2.5-0.5-4.6-1.9-6.4-4.3c-1.6-2.1-2.8-4.5-3.6-7.3c-0.2-0.8-0.9-1.3-1.7-1.2c-1.3,0.1-2.2-0.1-2.7-0.6
	c2.8-1.2,4.6-0.3,5.4,2.8c0.9,3.4,2.8,6,5.6,7.9c2.5,1.7,5.2,2.2,7.9,1.4c3.1-0.8,5.3-2.8,6.6-6.1c1.5-3.8,3-7.5,4.6-11.2
	c0.2-0.4,0.3-0.4,0.5-0.1L529,392.5z"/>
<path class="st8" d="M529,392.5c1.8,1.8,3.1,3,3.8,3.5c4,2.7,7.8,2.3,11.5-1.1c0.6-0.5,1.5-0.5,2,0.1c0.9,1,1.8,2,2.5,3
	c0.9,1.2,1.3,2.4,1.3,3.6c0,2.3-1.1,3.8-3.2,4.4c-1,0.3-2.7,0.5-4.9,0.5c-3.8,0.1-7.3-0.8-10.5-2.6c-0.1-0.1-0.2,0-0.3,0.1
	c0,0,0,0,0,0c-1.8,5.6-5.4,9.1-10.8,10.3c-9.3,2.1-17.1,0.2-23.6-5.7c-2.1-2-3.4-3.9-3.8-5.8c-0.6-2.9,0.6-5.3,3.8-7.1
	c0.5,0.5,1.4,0.7,2.7,0.6c0.8-0.1,1.5,0.4,1.7,1.2c0.8,2.7,2,5.1,3.6,7.3c1.8,2.4,4,3.8,6.4,4.3c2.8,0.5,5.6-0.1,8.4-1.8
	c1.4-0.9,2.5-2.1,3.1-3.6c0.5-1.2,0.8-1.8,0.8-1.9c1-2.1,2-4.1,2.9-6.2C526.9,394.1,527.8,393.1,529,392.5z"/>
<path class="st3" d="M481.3,485.9c-3.1,2.3-6.4,4.4-9.7,6.5c-0.2,0.1-2.6,1.7-7.4,4.7c-10.3,6.5-21.4,10.2-33.4,11
	c-4.8,0.3-9.2-0.6-13.1-2.8c-3.7-2.1-6.7-5.2-8.9-9.2c-2.5-4.5-3.5-9.4-3.2-14.7c0.5-9.1,4-17,10.6-23.7c0.2-0.2,0.5-0.3,0.8-0.2
	c7.1,2.7,14.3,4.9,21.7,6.6c5.9,1.3,17.8,3.3,35.8,6.1c7.2,1.1,13.8,1.9,19.9,2.3c40,3,80.4,1.7,121-3.8c12.5-1.7,24-3.9,34.5-6.6
	c0.2-0.1,0.4,0.1,0.5,0.3c0,0,0,0.1,0,0.1c0.1,3.9,0.1,6.5,0,7.9c-0.4,8.5-3.3,15.4-8.7,21c-3.2,3.3-7.5,5.8-12.8,7.5
	c-14.5,4.7-28.7,3-42.5-5.2c-3.2-1.9-6.5-4.1-9.8-6.8c-0.2-0.2-0.5-0.1-0.7,0.1c0,0-0.1,0.1-0.1,0.1c-2.1,6-5,11.2-8.7,15.8
	c-3.6,4.5-8.1,8.3-13.6,11.3c-7.7,4.2-15.9,6.5-24.8,6.9c-6.9,0.3-13.5-0.8-19.6-3.1c-14-5.3-23-15.9-27.1-31.8
	c0-0.2-0.2-0.3-0.4-0.2C481.4,485.8,481.3,485.8,481.3,485.9z"/>
<path class="st3" d="M833,629c0.5-2.3,0.5-5.2,0-8.6c-0.2-1.7,0.4-3,1.9-3.9c0.8-0.5,1.8-1.2,3-2c1.1-0.7,2-1.5,2.6-2.4
	c5.2-6.8,6.7-14.3,4.7-22.5c-2.1-8.3-5.8-15-11.2-20.1c-8.4-7.9-17.8-9.6-28.3-5.3c-2.8,1.2-4.9,2.6-6.3,4.1
	c-1.6,1.8-2.8,4.1-3.8,6.9c-2.1,6.1-1.4,12.1,2,18.1c0.1,0.2,0,0.5-0.2,0.6c-0.1,0-0.1,0-0.2,0.1c-3.4,0.4-6.1,1.9-8,4.6
	c-2,2.8-3,6.3-3,10.4c0,6,1.6,11.4,5,16.2c0.2,0.3,0.1,0.5-0.2,0.5c-5.8,0.4-11.2,1.8-16.2,4.4c-5.8,2.9-9.7,6.7-11.7,11.2
	c-2.6,5.9-1.5,12.1,3.4,18.5c1.6,2.1,3.2,4.1,4.9,6.1c0.2,0.2,0.3,0.6,0.3,0.9c-0.6,5.5-1.8,11-3.5,16.5c-0.4,1.3-1.2,2.2-2.4,2.7
	c-3.2,1.3-6.5,2.7-10,4.1c-5.5,2.2-9.7,5.6-12.5,10.2c-2.8,4.6-4,9.5-3.7,14.8c0.3,5.2,2.3,10.2,5.7,15c5.1,7.1,11.2,12.4,18.2,15.9
	c5.2,2.6,9.9,3.7,14.3,3.3c5.3-0.5,9.9-3.1,13.7-7.7c3.8-4.6,6.1-9.7,6.9-15.5c0.3-2.6,0.5-4.6,0.4-6.2c-0.1-2.1-0.6-4.2-1.5-6.1
	c-0.4-0.8,0-1.9,0.8-2.3c2.5-1.2,4.7-2.7,6.7-4.3c1.8-1.5,3.5-3.6,5-6.1c4.1-6.9,6.4-14.5,6.9-22.7c0-0.1,0.1-0.8,0.3-2.2
	c0.2-1.9-0.3-3.7-1.7-5.5c-2.9-3.7-5.5-8.3-7.8-13.7c-0.4-1-0.1-1.5,1-1.5c4,13.3,12.8,21.6,26.2,24.8c0.2,0.1,0.4,0.3,0.3,0.5
	c0,0,0,0,0,0.1c-14.7,31.7-29.5,63.3-44.5,94.9c-2.2,4.7-6.1,6.8-11.5,6.2c-4.6-0.5-9.6-2.1-15-4.9c-2.6-1.3-4-2-4.1-2.1
	c-25-12.1-42.1-20.3-51.4-24.5c-6.1-2.8-9.8-4.6-11.2-5.4c-5.5-3.4-8.9-8-10-14c-0.4-1.9-0.1-4.1,0.8-6.5c1.4-3.9,3-7.6,4.8-11.3
	c6.5-13.3,13.4-26.4,20.6-39.3c0.1-0.3,0.4-0.4,0.7-0.3c3.8,0.8,7,1.3,9.8,1.5c5.9,0.4,11.2-1.2,15.9-4.8c3.8-2.9,6.2-6.8,7.2-11.5
	c0.8-4,0.5-8.2-0.8-12.8c-2-7-6.3-12.7-12.7-17.2c-0.2-0.2-0.3-0.5-0.2-0.8l7.6-14c0.1-0.3,0.5-0.4,0.8-0.3c4.1,1.4,8.1,1.9,12,1.6
	c6.9-0.6,11.9-3.3,15.1-8.1c2.7-4.1,3.9-9.1,3.6-15.2c-0.3-5.8-2.1-11.3-5.3-16.5c-2.5-4-5.5-7.8-9-11.2c-0.3-0.3-0.4-0.9-0.2-1.3
	c6.4-11.6,13.5-22.2,21.5-31.9c2.6-3.1,5.4-5.5,8.5-7.2c2.1-1.2,4.6-1.6,7.3-1.3c12.8,1.2,23.1-3.1,30.8-13c1.1-1.5,1.9-3.2,2.4-5.3
	c1.4-6.4,3.3-12.7,5.9-18.7c2.7-6.3,5.3-12.7,7.9-19c0.1-0.2,0.4-0.4,0.6-0.3c0,0,0,0,0,0c15.9,7.2,31.3,15.4,46.1,24.7
	c0.1,0.1,0.2,0.3,0.1,0.4c0,0-0.1,0.1-0.1,0.1c-1.2,0.9-2.5,2.1-3.9,3.7c-10.1,11.7-19.1,24.2-27.1,37.4c-0.9,1.5-1.6,3.1-2.2,4.8
	c0,0.1-0.2,0.4-0.5,1.2c-0.3,0.7-0.1,1.2,0.8,1.4c0.4,0.1,0.7,0.2,0.8,0.4c1.8,1.9,3.3,4.2,4.5,7c2.9,6.8,7.1,12.5,12.5,17
	c2.4,2,3.6,4.5,3.7,7.6c0.1,18.8-2.8,37.1-8.9,54.8c-1.1,3.2-2.8,6.1-5.2,8.6c-4.3,4.4-9.4,7.8-15.5,10.2c-0.7,0.3-1.6-0.1-1.9-0.8
	C843.2,638.7,838.9,633.3,833,629z"/>
<path class="st9" d="M833,629c-4-1-7.8-1.3-11.5-1c-3.9,0.4-7.1,2.2-9.4,5.5c-4.7,6.6-6,14-3.9,22c-1.1,0-1.4,0.6-1,1.5
	c2.3,5.4,4.9,9.9,7.8,13.7c1.4,1.7,1.9,3.5,1.7,5.5c-0.2,1.4-0.3,2.1-0.3,2.2c-0.5,8.2-2.8,15.8-6.9,22.7c-1.5,2.5-3.1,4.5-5,6.1
	c-2,1.7-4.2,3.1-6.7,4.3c-0.9,0.4-1.2,1.4-0.8,2.3c0.9,1.9,1.4,4,1.5,6.1c0.1,1.5-0.1,3.6-0.4,6.2c-0.8,5.8-3.1,10.9-6.9,15.5
	c-3.8,4.6-8.4,7.1-13.7,7.7c-4.3,0.4-9.1-0.7-14.3-3.3c-7-3.5-13.1-8.8-18.2-15.9c-3.5-4.8-5.4-9.8-5.7-15
	c-0.4-5.3,0.9-10.3,3.7-14.8c2.9-4.6,7-8,12.5-10.2c3.5-1.4,6.8-2.8,10-4.1c1.2-0.5,2-1.4,2.4-2.7c1.7-5.4,2.9-10.9,3.5-16.5
	c0-0.3-0.1-0.6-0.3-0.9c-1.7-2-3.3-4-4.9-6.1c-4.9-6.4-6.1-12.6-3.4-18.5c2-4.5,5.9-8.2,11.7-11.2c5-2.5,10.4-4,16.2-4.4
	c0.4,0,0.5-0.2,0.2-0.5c-3.3-4.9-5-10.3-5-16.2c0-4.1,1-7.6,3-10.4c1.9-2.7,4.6-4.3,8-4.6c0.2,0,0.4-0.2,0.4-0.5
	c0-0.1,0-0.1-0.1-0.2c-3.4-6-4-12-2-18.1c0.9-2.8,2.2-5.1,3.8-6.9c1.4-1.6,3.5-3,6.3-4.1c10.5-4.4,19.9-2.6,28.3,5.3
	c5.4,5,9.1,11.7,11.2,20.1c2.1,8.2,0.5,15.7-4.7,22.5c-0.7,0.9-1.6,1.7-2.6,2.4c-1.2,0.8-2.3,1.5-3,2c-1.4,0.9-2.1,2.2-1.9,3.9
	C833.5,623.8,833.5,626.7,833,629z"/>
<path class="st10" d="M680.2,585.5c0.5,0.1,0.8,0.4,0.9,0.7c0.1,0.3-0.1,0.6-0.3,0.8l-7.2,6.9c-0.5,0.5-0.6,1.2-0.2,1.8
	c0.8,1.3,0.8,2.8-0.1,4.3c-0.1,0.3-0.1,0.6,0,0.8c0.8,1.4,0.9,2.9,0.2,4.3c-0.5,1-0.3,1.8,0.5,2.2c0.1,0.7,0.5,1,1.2,0.8
	c1.8-0.3,3.6-0.9,5.2-1.8c4.5-2.5,8.7-3.4,12.8-2.8c3.4,0.5,5.5,2.7,6.2,6.5c0.5,2.4,0.1,4.5-1.1,6.5c-0.9,1.5-2.5,2.8-4.7,4
	c-5.2,2.7-10.7,4.1-16.7,4.2c-1.4,0-3.6-0.8-6.4-2.4c-3.4-1.9-5.9-1.2-7.3,2.1c-0.2,0.5-0.4,0.9-0.6,1.1c-0.7,0.8-1.2,0.6-1.5-0.8
	c-0.8-3.2-1.3-5.4-1.7-6.5c-0.1-0.3-0.3-0.4-0.5-0.1l-3.3,4.5c-0.2,0.3-0.5,0.5-0.8,0.5c-1.4,0.3-2.3-0.1-2.7-1.2
	c-0.3-0.6-0.3-1.5,0-2.5c0.5-1.9,1.1-3.8,1.8-5.7c0.5-1.3,0-2-1.5-2l-6-0.1c-0.3,0-0.6-0.2-0.6-0.5c-0.1-0.8,0-1.6,0.4-2.3
	c0.3-0.5,0.8-0.9,1.7-1.3c1.3-0.6,2.6-1.4,3.8-2.3c1.3-1,1.6-2.2,0.9-3.7c-1.2-2.6-1.6-5.4-1.3-8.3c0-0.3,0.3-0.5,0.6-0.5
	c2.5-0.2,4.5,0.6,6,2.3c1.3,1.4,2,1.2,2.2-0.7c0.5-4.2,2.2-7.7,5-10.6c0.6-0.6,1.2-1,1.9-1.1c0.6-0.2,1.4-0.3,2.3-0.4
	c0.6-0.1,1.2,0.3,1.3,1c0,0.1,0,0.2,0,0.3c-0.2,2.6-0.7,5.3-1.3,8.1c-0.4,1.8,0,2.3,1.3,1.5c0.3-0.2,0.7-0.5,1.1-1
	C674.4,589.6,677.2,587.3,680.2,585.5z"/>
<path class="st11" d="M674,607.5c-0.8-0.5-1-1.2-0.5-2.2c0.7-1.5,0.6-2.9-0.2-4.3c-0.2-0.3-0.2-0.6,0-0.8c0.9-1.6,0.9-3,0.1-4.3
	c-0.3-0.6-0.2-1.3,0.2-1.8l7.2-6.9c0.3-0.3,0.4-0.6,0.3-0.8c-0.1-0.4-0.4-0.6-0.9-0.7c5.4-3.6,9.6-2.9,12.7,2.1
	c0.4,0.7,0.3,1.7-0.4,2.2c-4.1,3.2-8.1,6.1-11.9,8.8C677.4,600.8,675.2,603.8,674,607.5z"/>
<path class="st10" d="M567.2,667c0.4,1.2,1.2,1.9,2.2,2c5.9,0.9,10.3-0.9,13.4-5.5c0.6-1,1-2.2,1-3.7c0-1.7,0.1-3.4,0.3-5.2
	c0.2-1.9,0.2-3.7-0.1-5.3c-0.9-4.8-1.5-9.6-1.9-14.4c-0.1-1.3-0.3-2.5-0.7-3.7c-0.6-2-0.9-3.2-0.9-3.7c0-2.2-0.4-4.6-1.2-7
	c-2.1-6.1-4.4-11.7-7-17c-1-2.1-2.2-4.1-3.5-6.1c-2.1-3.1-3.6-4.9-4.4-5.5c-2-1.4-2.5-2.7-1.2-3.9c0.6-0.6,1.5-1,2.8-1.3
	c1.3-0.3,2.6-0.5,4-0.7c0.8-0.1,1.2-0.5,1-1.1c-0.1-0.2,0.1-0.4,0.3-0.4c0,0,0,0,0,0c0.3-0.1,0.4-0.2,0.5-0.5
	c12.9-1.1,23.6,3.2,32.1,12.9c3.8,4.3,6.7,9,8.9,14c1.8,4.2,3.3,9.4,4.5,15.8c2.2,11.1,2.2,22.2,0,33.2c-2.4,12.4-8.1,23.3-17,32.7
	c-12.6,13.2-27.7,18.9-45.4,17.1c-6.6-0.7-13-2.7-19.2-6.1c-6.5-3.6-11.4-7.9-14.7-13c-4-6.1-6.1-13.2-6.4-21.5
	c0-0.6,0.2-1.2,0.7-1.5c5.1-4,8-9.3,8.6-15.7c0.5-5.2,0.5-10,0.2-14.4c-0.4-5.3-1.3-10-2.7-14.1c-3.5-10.5-10.9-17.9-22.1-22.2
	c-0.3-0.1-0.4-0.4-0.3-0.7c0-0.1,0.1-0.1,0.1-0.2c6.3-6.6,14.3-9.5,23.8-8.8c8.6,0.7,15.8,4.1,21.8,10.2c5.7,5.8,9.6,12.7,11.7,20.5
	c1.9,7.3,3.3,17.3,4,30c0.1,1.1,0.6,3.8,1.5,8C562.4,663,564.2,665.2,567.2,667z"/>
<path class="st12" d="M571.8,583.8c0,0.3-0.2,0.5-0.5,0.5c-0.2,0-0.4,0.2-0.3,0.4c0,0,0,0,0,0c0.2,0.7-0.2,1.1-1,1.1
	c-1.3,0.1-2.7,0.3-4,0.7c-1.3,0.3-2.3,0.8-2.8,1.3c-1.2,1.2-0.8,2.5,1.2,3.9c0.8,0.6,2.3,2.4,4.4,5.5c1.3,2,2.5,4,3.5,6.1
	c2.6,5.3,4.9,11,7,17c0.8,2.4,1.2,4.8,1.2,7c0,0.5,0.3,1.8,0.9,3.7c0.4,1.2,0.6,2.5,0.7,3.7c0.4,4.8,1,9.7,1.9,14.4
	c0.3,1.6,0.3,3.4,0.1,5.3c-0.2,1.7-0.3,3.4-0.3,5.2c0,1.5-0.3,2.7-1,3.7c-3,4.6-7.5,6.4-13.4,5.5c-1-0.2-1.8-0.8-2.2-2
	c2.4,0.7,4.9,0.7,7.3,0.1c2.2-0.6,3.7-2,4.5-4.1c1.1-3.1,1.8-6.3,2-9.6c0.1-2.1,0-5.3-0.3-9.7c-0.4-4.7-1.1-10.3-2.2-16.7
	c-2.7-15.6-9.6-28.5-20.6-38.7c-0.2-0.1-0.2-0.4,0-0.5c0,0,0.1-0.1,0.1-0.1C562.2,585.2,566.8,583.9,571.8,583.8z"/>
<path class="st13" d="M661.2,758l5.9,6c0.2,0.2,0.2,0.5,0,0.7c-1.3,1.5-2.2,2.7-2.6,3.4c-5,9-11,17.4-18.1,25l-1.1,0.1
	c-0.3,0-0.6,0.2-0.8,0.4c-4.8,5.2-9.9,10.1-15.3,14.7c-1.4,1.2-3,2.1-4.7,2.7c-2.5,0.9-3.8,1.4-3.9,1.4c-8,3.4-16.1,6.3-24.5,8.5
	c-19.9,5.4-40.1,8.5-60.7,9.3c-19,0.8-37.8-0.7-56.5-4.3c-18.2-3.6-35.5-9.4-52.1-17.5c-0.3-0.1-0.6-0.2-0.8-0.1
	c-0.3,0.1-0.4,0.4-0.4,0.9c-19.4-10.6-35.7-24.5-48.9-41.9c-2.9-3.7-6.7-9.2-11.5-16.4c-11.3-16.8-21.2-34.6-29.5-53.1
	c-1.1-2.4-2.1-4.9-3-7.5c-1.3-3.6-2.2-6.2-2.7-7.5c-4.5-11.5-8.4-23.2-11.7-35.1l0.4,0c0.2,0,0.4-0.1,0.5-0.1
	c0.7-1.2,0.8-2.6,0.2-4.2c-3-8.1-5-14.7-5.8-19.7c-0.6-3.7-1.2-6.5-1.8-8.5c-0.1-0.4-0.1-0.8,0.1-0.9c0.2-0.2,0.5,0.1,0.7,0.9
	c1,3.6,2,7.2,2.8,10.8c1,4.3,2.2,8.4,3.7,12.5c0.4,1,2,5,4.9,12.1c7.3,18.1,16.5,35.6,27.5,52.6c10.4,16.1,21.7,30.8,33.9,44.1
	c17.9,19.7,39.8,35.2,65.5,46.5c9.4,4.2,17,7,22.6,8.5c21.7,5.9,44.1,8.4,67.2,7.7c17.6-0.6,34.5-3.2,50.8-8
	c16.8-4.9,32.4-12.9,46.8-24c4.6-3.5,8-6.3,10.2-8.3c3.4-3,6.3-6.3,8.9-9.8C658.4,758.6,659.7,757.9,661.2,758z"/>
<path class="st2" d="M897,666c-2.4,4.6-5.3,8.9-8.6,12.9c-2.6,3.2-6.7,5.5-12.1,6.9c-0.4,0.1-0.7,0.3-0.8,0.7l-28.7,55
	c-0.5-1.1-0.5-2-0.1-2.8c2.5-4.6,4.9-9.3,7.2-14c3-6,5.3-10.7,7.1-14c4.4-8.2,8.9-16.5,13.3-24.7c0.5-0.8,1.3-1.5,2.2-1.7
	c2.3-0.6,4.3-1.3,6.1-2.3c1.6-0.9,3.2-2.3,4.8-4.2c3.2-3.9,5.7-7.4,7.4-10.5C895.5,666.2,896.1,665.9,897,666z"/>
<path class="st2" d="M656,692.8c-6.1,7.3-12.6,14.2-19.6,20.6c-12.4,11.5-26.3,19.7-41.7,24.6c-8.9,2.8-18.8,4.7-29.8,5.7
	c0.3-0.9,0.9-1.4,2-1.5c3.8-0.4,8-1,12.4-2c4.9-1.1,9-2,12.2-2.9c9.1-2.5,17.7-6.3,25.8-11.4c7.5-4.8,14.2-10,20.1-15.6
	c5-4.8,10.6-10.5,16.8-17.2C654.6,692.7,655.2,692.6,656,692.8z"/>
<path class="st3" d="M260.1,792.6c-0.2-0.1-0.4-0.3-0.3-0.5c0-0.1,0.1-0.1,0.1-0.2l9.1-9.3c0.2-0.2,0.6-0.3,0.9-0.1
	c6,3.4,12.2,6.5,18.5,9.3c3.7,1.6,8.2,2.7,13.5,3.3c6.1,0.6,11.7-0.4,16.8-3.1c3.1-1.6,6.2-3.8,9.3-6.6c2.8-2.5,5.3-5.4,7.5-8.8
	c0.1-0.1,0.3-0.2,0.4-0.1c0,0,0.1,0.1,0.1,0.1c7.6,13,16.6,24.7,26.9,35.1c2.7,2.7,8.2,7.7,16.5,14.9c0.3,0.2,0.2,0.3-0.1,0.4
	c-13,1-23.7,1.6-32.2,1.8c-16.9,0.4-32.8,1.8-47.7,4.1c-0.3,0-0.5-0.1-0.6-0.4C292.9,812.9,279.9,799.6,260.1,792.6z"/>
<path class="st14" d="M646.5,793c-4.2,4.9-8.7,9.5-13.5,13.8c-2.1,1.9-4.5,3.4-7.2,4.7c-11.5,5.4-21.9,9.2-31,11.4
	c-24.4,5.9-49.1,8.7-74.2,8.5c-8.1-0.1-16.2-0.6-24.2-1.5c-7-0.8-13.6-1.8-19.8-3c-17.8-3.4-34.7-9.3-50.8-17.8
	c-0.1-0.5,0-0.7,0.4-0.9c0.2-0.1,0.5,0,0.8,0.1c16.6,8.1,34,14,52.1,17.5c18.7,3.6,37.5,5.1,56.5,4.3c20.6-0.8,40.8-4,60.7-9.3
	c8.4-2.3,16.5-5.1,24.5-8.5c0.1,0,1.4-0.5,3.9-1.4c1.7-0.6,3.3-1.5,4.7-2.7c5.4-4.6,10.5-9.5,15.3-14.7c0.2-0.2,0.5-0.4,0.8-0.4
	L646.5,793z"/>
<path class="st2" d="M603.8,868c-43.5,0.4-87,0.4-130.5,0c0.4-0.6,1.1-1,2.2-1c18.7,0.1,37.3,0.2,56,0.1c20.8-0.1,34-0.1,39.7,0
	c11.8,0.1,22.3,0,31.5-0.2c0.4,0,0.7,0.1,0.9,0.3C603.7,867.4,603.8,867.6,603.8,868z"/>
</svg>
